<svg width="791" height="746" fill="none" xmlns="http://www.w3.org/2000/svg"><path fill-rule="evenodd" clip-rule="evenodd" d="M0 0h886v746H0V0zm1.384 1.332h107.982V105.24H1.384V1.332zm110.75 0h107.982V105.24H112.134V1.332zm218.732 0H222.884V105.24h107.982V1.332zm2.768 0h107.982V105.24H333.634V1.332zm218.732 0H444.384V105.24h107.982V1.332zm2.768 0h107.982V105.24H555.134V1.332zm218.732 0H665.884V105.24h107.982V1.332zm2.768 0h107.982V105.24H776.634V1.332zM109.366 107.904H1.384v103.907h107.982V107.904zm2.768 0h107.982v103.907H112.134V107.904zm218.732 0H222.884v103.907h107.982V107.904zm2.768 0h107.982v103.907H333.634V107.904zm218.732 0H444.384v103.907h107.982V107.904zm2.768 0h107.982v103.907H555.134V107.904zm218.732 0H665.884v103.907h107.982V107.904zm2.768 0h107.982v103.907H776.634V107.904zM109.366 214.475H1.384v103.907h107.982V214.475zm2.768 0h107.982v103.907H112.134V214.475zm218.732 0H222.884v103.907h107.982V214.475zm2.768 0h107.982v103.907H333.634V214.475zm218.732 0H444.384v103.907h107.982V214.475zm2.768 0h107.982v103.907H555.134V214.475zm218.732 0H665.884v103.907h107.982V214.475zm2.768 0h107.982v103.907H776.634V214.475zM109.366 321.046H1.384v103.908h107.982V321.046zm2.768 0h107.982v103.908H112.134V321.046zm218.732 0H222.884v103.908h107.982V321.046zm2.768 0h107.982v103.908H333.634V321.046zm218.732 0H444.384v103.908h107.982V321.046zm2.768 0h107.982v103.908H555.134V321.046zm218.732 0H665.884v103.908h107.982V321.046zm2.768 0h107.982v103.908H776.634V321.046zM109.366 427.618H1.384v103.907h107.982V427.618zm2.768 0h107.982v103.907H112.134V427.618zm218.732 0H222.884v103.907h107.982V427.618zm2.768 0h107.982v103.907H333.634V427.618zm218.732 0H444.384v103.907h107.982V427.618zm2.768 0h107.982v103.907H555.134V427.618zm218.732 0H665.884v103.907h107.982V427.618zm2.768 0h107.982v103.907H776.634V427.618zM109.366 534.189H1.384v103.907h107.982V534.189zm2.768 0h107.982v103.907H112.134V534.189zm218.732 0H222.884v103.907h107.982V534.189zm2.768 0h107.982v103.907H333.634V534.189zm218.732 0H444.384v103.907h107.982V534.189zm2.768 0h107.982v103.907H555.134V534.189zm218.732 0H665.884v103.907h107.982V534.189zm2.768 0h107.982v103.907H776.634V534.189zM109.366 640.761H1.384v103.907h107.982V640.761zm2.768 0h107.982v103.907H112.134V640.761zm218.732 0H222.884v103.907h107.982V640.761zm2.768 0h107.982v103.907H333.634V640.761zm218.732 0H444.384v103.907h107.982V640.761zm2.768 0h107.982v103.907H555.134V640.761zm218.732 0H665.884v103.907h107.982V640.761zm2.768 0h107.982v103.907H776.634V640.761z" fill="url(#paint0_radial)" fill-opacity=".14"/><defs><radialGradient id="paint0_radial" cx="0" cy="0" r="1" gradientUnits="userSpaceOnUse" gradientTransform="matrix(326.78665 25.17584 -29.9311 388.51075 257.92 347.824)"><stop stop-color="#fff"/><stop offset="1" stop-color="#fff" stop-opacity="0"/></radialGradient></defs></svg>